<svg width="51" height="31" viewBox="0 0 51 31" fill="none" xmlns="http://www.w3.org/2000/svg">
<path d="M1 30.9999V1.99986H34.4505C36.146 1.99986 37.8374 2.16734 39.5 2.49986V2.49986L41.1962 3.06528C42.0628 3.35413 42.8952 3.73696 43.6784 4.20692L43.8467 4.30791C44.6127 4.76748 45.3194 5.31925 45.951 5.95086V5.95086C46.3165 6.3164 46.6557 6.70743 46.9658 7.12099L47.1611 7.38139C47.7192 8.12553 48.2093 8.91838 48.6252 9.75035L49 10.4999V10.4999C49.6606 12.1514 50 13.9137 50 15.6924V16.4999V17.2638C50 18.7343 49.6576 20.1846 49 21.4999V21.4999L48.6252 22.2494C48.2093 23.0813 47.7193 23.8742 47.1611 24.6183L46.9658 24.8787C46.6557 25.2923 46.3165 25.6833 45.951 26.0489V26.0489C45.3194 26.6805 44.6127 27.2322 43.8467 27.6918L42.5 28.4999L41.7361 28.8818C40.2656 29.6171 38.6441 29.9999 37 29.9999V29.9999H25.5M36 25.9999L35.5898 26.4101C34.866 27.1339 34.0562 27.7662 33.1784 28.2928L33.0941 28.3434C32.3669 28.7797 31.5941 29.1352 30.7895 29.4034V29.4034C29.6043 29.7984 28.3631 29.9999 27.1137 29.9999H25.5M25.5 29.9999L22.0964 29.7162C20.3933 29.5743 18.7541 29.0026 17.3322 28.0547V28.0547C16.7788 27.6857 16.2631 27.263 15.7928 26.7926L15.6268 26.6266C15.2094 26.2093 14.8223 25.7629 14.4682 25.2908L14.3389 25.1183C13.7807 24.3742 13.2907 23.5813 12.8748 22.7494L12.5 21.9999L12.0732 20.9328C11.6924 19.9809 11.4267 18.987 11.2817 17.9721V17.9721C11.095 16.665 11.1133 15.3202 11.3303 14.0179V14.0179C11.4423 13.346 11.6082 12.6753 11.8236 12.0291L12.0654 11.3036C12.3543 10.4371 12.7371 9.6047 13.2071 8.82143V8.82143C13.7337 7.94371 14.3763 7.12362 15.1 6.39984V6.39984C15.693 5.80691 16.3514 5.26561 17.0491 4.80048L17.1644 4.72364C18.3808 3.9127 19.7156 3.29541 21.1213 2.89379L22.1861 2.58956C22.3954 2.52978 22.6047 2.47309 22.8168 2.42433C23.3811 2.29461 24.5865 2.03959 25.5 1.99988C26.9202 1.93813 28.1641 2.01392 29.5 2.49988C30.7017 2.93702 30.5858 2.79275 32 3.49986C33 3.99987 34 4.49987 35.5 5.99987" stroke="#3D2373" stroke-width="2"/>
<path d="M1 16H11" stroke="#3D2373" stroke-width="2"/>
<path d="M25.5 30.5V1.5" stroke="#3D2373" stroke-width="2"/>
</svg>
