<svg width="30" height="30" viewBox="0 0 30 30" fill="none" xmlns="http://www.w3.org/2000/svg">
<circle cx="15" cy="15" r="14.5" stroke="black"/>
<circle cx="15" cy="15" r="7.5" stroke="black"/>
<path d="M11.7252 13.8899C11.4083 12.9182 11.719 11.8515 12.5082 11.2019C12.745 11.007 13.1001 11.0711 13.2538 11.3365L14.1073 12.8102C14.2051 12.9791 14.106 13.194 13.9139 13.2292C13.4738 13.3099 13.219 13.7747 13.3877 14.1892L13.5935 14.6948C13.6846 14.9186 13.8104 15.1266 13.9663 15.3113L14.1818 15.5664C14.6579 16.1303 15.2682 16.5655 15.9564 16.832L16.0463 16.8668C16.1431 16.9043 16.2529 16.8751 16.3183 16.7946L16.794 16.2089C16.991 15.9664 17.3552 15.9493 17.5741 16.1723L18.6394 17.2581C18.7705 17.3917 18.804 17.5931 18.7233 17.762C18.453 18.3275 17.8566 18.6623 17.233 18.5985L16.8882 18.5632C16.3163 18.5047 15.7639 18.3221 15.2697 18.0281L14.8172 17.7589C14.1096 17.338 13.4908 16.7833 12.9953 16.1257L12.5778 15.5716C12.2227 15.1003 11.9481 14.5734 11.7651 14.0123L11.7252 13.8899Z" fill="black"/>
</svg>
